SCREENSHOTS:
 
http://lnk.co/GQP2Y

Video
ID                               : 1
Format                           : AVC
Format/Info                      : Advanced Video Codec
Format profile                   : Baseline@L1.3
Format settings, CABAC           : No
Format settings, ReFrames        : 2 frames
Codec ID                         : avc1
Codec ID/Info                    : Advanced Video Coding
Duration                         : 30mn 54s
Bit rate mode                    : Variable
Bit rate                         : 360 Kbps
Width                            : 368 pixels
Height                           : 272 pixels
Display aspect ratio             : 4:3
Frame rate mode                  : Variable
Frame rate                       : 23.976 fps
Minimum frame rate               : 23.974 fps
Maximum frame rate               : 23.981 fps
Color space                      : YUV
Chroma subsampling               : 4:2:0
Bit depth                        : 8 bits
Scan type                        : Progressive
Bits/(Pixel*Frame)               : 0.150
Stream size                      : 79.6 MiB (84%)
Writing library                  : x264 core 112

Audio
ID                               : 2
Format                           : AAC
Format/Info                      : Advanced Audio Codec
Format profile                   : LC
Codec ID                         : 40
Duration                         : 30mn 54s
Bit rate mode                    : Variable
Bit rate                         : 64.0 Kbps
Maximum bit rate                 : 93.6 Kbps
Channel(s)                       : 1 channel
Channel positions                : Front: C
Sampling rate                    : 22.05 KHz
Compression mode                 : Lossy
Stream size                      : 14.2 MiB (15%)

encoded for iPod,PSP,Zune and other handheld devices...:)